<svg xmlns="http://www.w3.org/2000/svg" x="0px" y="0px"
width="60" height="60"
viewBox="0 0 172 172"
style=" fill:#000000;"><g fill="none" fill-rule="nonzero" stroke="none" stroke-width="1" stroke-linecap="butt" stroke-linejoin="miter" stroke-miterlimit="10" stroke-dasharray="" stroke-dashoffset="0" font-family="none" font-weight="none" font-size="none" text-anchor="none" style="mix-blend-mode: normal"><path d="M0,172v-172h172v172z" fill="none"></path><g><path d="M89.58333,14.33333c-39.5815,0 -71.66667,32.08517 -71.66667,71.66667c0,39.5815 32.08517,71.66667 71.66667,71.66667c39.5815,0 71.66667,-32.08517 71.66667,-71.66667c0,-39.5815 -32.08517,-71.66667 -71.66667,-71.66667zM89.58333,143.33333c-31.66592,0 -57.33333,-25.66742 -57.33333,-57.33333c0,-31.66592 25.66742,-57.33333 57.33333,-57.33333c31.66592,0 57.33333,25.66742 57.33333,57.33333c0,31.66592 -25.66742,57.33333 -57.33333,57.33333z" fill="#000000"></path><path d="M89.58333,21.5c-34.9375,0 -64.5,35.53592 -64.5,64.5c0,39.5815 24.9185,71.66667 64.5,71.66667c39.5815,0 71.66667,-32.08517 71.66667,-71.66667c0,-39.5815 -32.08517,-64.5 -71.66667,-64.5zM89.58333,143.33333c-31.66592,0 -57.33333,-25.66742 -57.33333,-57.33333c0,-31.66592 25.66742,-57.33333 57.33333,-57.33333c31.66592,0 57.33333,25.66742 57.33333,57.33333c0,31.66592 -25.66742,57.33333 -57.33333,57.33333z" fill="#000000"></path><path d="M89.58333,28.66667c33.74425,0 57.33333,28.96408 57.33333,57.33333c0,31.66592 -25.66742,57.33333 -57.33333,57.33333c-26.27658,0 -57.33333,-21.71142 -57.33333,-57.33333c0,35.62192 21.71142,64.5 57.33333,64.5c35.62192,0 64.5,-28.87808 64.5,-64.5c0,-31.95258 -28.87808,-57.33333 -64.5,-57.33333z" fill="#000000"></path><path d="M32.25,86c0,-31.66592 25.66742,-57.33333 57.33333,-57.33333c35.62192,0 64.5,25.38075 64.5,57.33333c0,-35.62192 -28.87808,-64.5 -64.5,-64.5c-35.62192,0 -64.5,28.87808 -64.5,64.5c0,35.62192 28.87808,64.5 64.5,64.5c-35.62192,0 -57.33333,-28.87808 -57.33333,-64.5z" fill="#000000"></path><path d="M32.594,92.16692c0.043,0.39058 0.12183,0.7525 0.172,1.13592c-0.05017,-0.37983 -0.13258,-0.74892 -0.172,-1.13592z" fill="#000000"></path><path d="M89.58333,28.66667l-11.79633,51.58567l11.79633,5.74767l12.0185,-5.74767z" fill="#000000"></path><path d="M89.58333,28.66667l-11.79633,51.58567l11.79633,5.74767z" fill="#e8eaf6"></path><path d="M39.41667,114.66667l50.16667,-15.45492v-13.21175l-11.79633,-5.74767z" fill="#000000"></path><path d="M39.41667,114.66667l50.16667,-15.45492v-13.21175z" fill="#000000"></path><path d="M139.75,114.89242l-50.16667,-15.68067v-13.21175l12.0185,-5.74767z" fill="#000000"></path><path d="M139.75,114.89242l-50.16667,-15.68067v-13.21175z" fill="#000000"></path></g></g></svg>