<svg xmlns="http://www.w3.org/2000/svg" x="0px" y="0px"
width="60" height="60"
viewBox="0 0 172 172"
style=" fill:#000000;"><g fill="none" fill-rule="nonzero" stroke="none" stroke-width="1" stroke-linecap="butt" stroke-linejoin="miter" stroke-miterlimit="10" stroke-dasharray="" stroke-dashoffset="0" font-family="none" font-weight="none" font-size="none" text-anchor="none" style="mix-blend-mode: normal"><path d="M0,172v-172h172v172z" fill="none"></path><g><path d="M57.33333,57.33333h57.33333v57.33333h-57.33333z" fill="#cfd8dc"></path><path d="M17.91667,68.08333h154.08333l-17.91667,35.83333h-154.08333z" fill="#cfd8dc"></path><path d="M154.08333,75.25h-46.58333v-10.75h-43v10.75h-35.83333l-10.75,21.5h46.58333v10.75h43v-10.75h35.83333z" fill="#000000"></path><path d="M86,107.5v-43h-21.5v10.75h-35.83333l-10.75,21.5h46.58333v10.75z" fill="#000000"></path><path d="M57.33333,57.33333l7.16667,7.16667v10.75l-7.16667,-7.16667z" fill="#90a4ae"></path><path d="M57.33333,57.33333h28.66667v7.16667h-21.5z" fill="#b0bec5"></path><path d="M0,103.91667l17.91667,-7.16667l10.75,-21.5l-10.75,-7.16667z" fill="#90a4ae"></path><path d="M17.91667,68.08333l10.75,7.16667h35.83333l-7.16667,-7.16667z" fill="#b0bec5"></path><path d="M86,107.5v7.16667h-28.66667l7.16667,-7.16667z" fill="#90a4ae"></path><path d="M17.91667,96.75l-17.91667,7.16667h57.33333v10.75l7.16667,-7.16667v-10.75z" fill="#607d8b"></path><path d="M114.66667,57.33333l-7.16667,7.16667v10.75l7.16667,-7.16667z" fill="#eceff1"></path><path d="M154.08333,75.25l17.91667,-7.16667l-17.91667,35.83333l-10.75,-7.16667z" fill="#cfd8dc"></path><path d="M107.5,96.75v10.75l7.16667,7.16667v-10.75z" fill="#90a4ae"></path><path d="M107.5,96.75l7.16667,7.16667h39.41667l-10.75,-7.16667z" fill="#90a4ae"></path><path d="M114.66667,114.66667l-7.16667,-7.16667h-21.5v7.16667z" fill="#b0bec5"></path><path d="M114.66667,68.08333l-7.16667,7.16667h46.58333l17.91667,-7.16667z" fill="#eceff1"></path></g></g></svg>