<svg xmlns="http://www.w3.org/2000/svg" x="0px" y="0px"
width="100" height="100"
viewBox="0 0 172 172"
style=" fill:#000000;"><g fill="none" fill-rule="nonzero" stroke="none" stroke-width="1" stroke-linecap="butt" stroke-linejoin="miter" stroke-miterlimit="10" stroke-dasharray="" stroke-dashoffset="0" font-family="none" font-weight="none" font-size="none" text-anchor="none" style="mix-blend-mode: normal"><path d="M0,172v-172h172v172z" fill="none"></path><g fill="#0000ff"><path d="M13.4375,16.125c-4.42086,0 -8.0625,3.64164 -8.0625,8.0625v90.92358c-0.04797,0.29023 -0.04797,0.58636 0,0.87659v4.94983c0,4.42086 3.64164,8.0625 8.0625,8.0625h55.39294l-7.15967,21.5h-13.29578c-0.96921,-0.01371 -1.87072,0.49551 -2.35932,1.33266c-0.4886,0.83715 -0.4886,1.87253 0,2.70968c0.4886,0.83715 1.39011,1.34637 2.35932,1.33266h14.80224c0.2765,0.04346 0.55809,0.04346 0.8346,0h43.96057c0.28508,0.04625 0.57576,0.04625 0.86084,0h14.79175c0.96921,0.01371 1.87072,-0.49551 2.35932,-1.33266c0.4886,-0.83715 0.4886,-1.87253 0,-2.70968c-0.4886,-0.83715 -1.39011,-1.34637 -2.35932,-1.33266h-13.29578l-7.15967,-21.5h55.39294c4.42086,0 8.0625,-3.64164 8.0625,-8.0625v-4.92358c0.04797,-0.29023 0.04797,-0.58636 0,-0.87659v-90.94983c0,-4.42086 -3.64164,-8.0625 -8.0625,-8.0625zM13.4375,21.5h145.125c1.51852,0 2.6875,1.16898 2.6875,2.6875v2.6875h-150.5v-2.6875c0,-1.51852 1.16898,-2.6875 2.6875,-2.6875zM10.75,32.25h150.5v80.625h-16.125c-0.96921,-0.01371 -1.87072,0.49551 -2.35932,1.33266c-0.4886,0.83715 -0.4886,1.87253 0,2.70968c0.4886,0.83715 1.39011,1.34637 2.35932,1.33266h16.125v2.6875c0,1.51852 -1.16898,2.6875 -2.6875,2.6875h-58.99377h-0.2677h-26.30811c-0.13188,-0.02215 -0.26522,-0.03444 -0.39892,-0.03674c-0.15299,-0.00077 -0.30577,0.01152 -0.45667,0.03674h-58.69983c-1.51852,0 -2.6875,-1.16898 -2.6875,-2.6875v-2.6875h107.5c0.96921,0.01371 1.87072,-0.49551 2.35932,-1.33266c0.4886,-0.83715 0.4886,-1.87253 0,-2.70968c-0.4886,-0.83715 -1.39011,-1.34637 -2.35932,-1.33266h-107.5zM82.59338,37.625c-2.33058,0 -4.42121,1.52955 -5.12305,3.7583l-1.90015,5.99963l-5.59021,-2.90271c-2.06948,-1.07485 -4.62336,-0.67806 -6.27258,0.96582c-0.00175,0 -0.0035,0 -0.00525,0l-4.8186,4.8186c-1.65041,1.65041 -2.04154,4.20667 -0.96582,6.27783l2.89746,5.58496l-5.99963,1.90539c-2.22006,0.70448 -3.75305,2.79247 -3.75305,5.12305v6.81323c0,2.32909 1.52662,4.41988 3.75305,5.12305l6.00488,1.90015l-2.90271,5.59021c-1.07485,2.06948 -0.67806,4.62336 0.96582,6.27258c0,0.00175 0,0.0035 0,0.00525l4.8186,4.8186c1.65041,1.65041 4.20667,2.04154 6.27783,0.96582l5.58496,-2.89746l1.90539,5.99963c0.70448,2.22006 2.79247,3.75305 5.12305,3.75305h6.81323c2.33058,0 4.42121,-1.52955 5.12305,-3.7583l1.90015,-5.99963l5.59021,2.90271c2.06948,1.07485 4.62336,0.67806 6.27258,-0.96582c0.00175,0 0.0035,0 0.00525,0l4.8186,-4.8186c1.65041,-1.65041 2.04154,-4.20667 0.96582,-6.27783l-2.89746,-5.58496l5.99963,-1.90539c2.22006,-0.70448 3.75305,-2.79247 3.75305,-5.12305v-6.81323c0,-2.32909 -1.52662,-4.41988 -3.75305,-5.12305h-0.00525l-5.99963,-1.90015l2.90271,-5.59021c1.07485,-2.06948 0.67806,-4.62336 -0.96582,-6.27258c0,-0.00175 0,-0.0035 0,-0.00525l-4.8186,-4.8186c-1.65041,-1.65041 -4.20667,-2.04154 -6.27783,-0.96582l-5.58496,2.89746l-1.90539,-5.99963c-0.70436,-2.22006 -2.79247,-3.75305 -5.12305,-3.75305zM82.59338,43h6.81323l2.62976,8.3092c0.23973,0.75817 0.80286,1.37127 1.53796,1.67444l0.91858,0.37793c0.73274,0.30482 1.56274,0.27024 2.26758,-0.09448l7.73181,-4.0155c0.00175,0 0.0035,0 0.00525,0l4.81336,4.81336c0,0.00175 0,0.0035 0,0.00525l-4.0155,7.73181c-0.36472,0.70484 -0.39931,1.53484 -0.09448,2.26758l0.37793,0.91858c0.30317,0.7351 0.91627,1.29823 1.67444,1.53796l8.3092,2.62976v6.81323l-8.3092,2.62976c-0.75817,0.23973 -1.37127,0.80286 -1.67444,1.53796l-0.37793,0.91858c-0.30482,0.73274 -0.27024,1.56274 0.09448,2.26758l4.0155,7.73181c0,0.00175 0,0.0035 0,0.00525l-4.81336,4.81336c-0.00175,0 -0.0035,0 -0.00525,0l-7.73181,-4.0155c-0.70484,-0.36472 -1.53484,-0.39931 -2.26758,-0.09448l-0.91858,0.37793c-0.7351,0.30317 -1.29823,0.91627 -1.53796,1.67444l-2.62976,8.3092h-6.81323l-2.62976,-8.3092c-0.23973,-0.75817 -0.80286,-1.37127 -1.53796,-1.67444l-0.91858,-0.37793c-0.73274,-0.30482 -1.56274,-0.27024 -2.26758,0.09448l-7.73181,4.0155c-0.00175,0 -0.0035,0 -0.00525,0l-4.81336,-4.81336c0,-0.00175 0,-0.0035 0,-0.00525l4.0155,-7.73181c0.36472,-0.70484 0.39931,-1.53484 0.09448,-2.26758l-0.37793,-0.91858c-0.30317,-0.7351 -0.91627,-1.29823 -1.67444,-1.53796l-8.3092,-2.62976v-6.81323l8.3092,-2.62976c0.75817,-0.23973 1.37127,-0.80286 1.67444,-1.53796l0.37793,-0.91858c0.30482,-0.73274 0.27024,-1.56274 -0.09448,-2.26758l-4.0155,-7.73181c0,-0.00175 0,-0.0035 0,-0.00525l4.81336,-4.81336c0.00175,0 0.0035,0 0.00525,0l7.73181,4.0155c0.70484,0.36472 1.53484,0.39931 2.26758,0.09448l0.91858,-0.37793c0.7351,-0.30317 1.29823,-0.91627 1.53796,-1.67444zM86,59.125c-4.25521,0 -7.78867,1.69247 -10.07288,4.26221c-2.28421,2.56974 -3.36462,5.89057 -3.36462,9.17529c0,3.28472 1.08041,6.60556 3.36462,9.17529c2.28421,2.56974 5.81767,4.26221 10.07288,4.26221c4.25521,0 7.78867,-1.69247 10.07288,-4.26221c2.28421,-2.56974 3.36462,-5.89057 3.36462,-9.17529c0,-3.28472 -1.08041,-6.60556 -3.36462,-9.17529c-2.28421,-2.56974 -5.81767,-4.26221 -10.07288,-4.26221zM86,64.5c2.91146,0 4.753,0.99503 6.05212,2.45654c1.29912,1.46151 2.01038,3.51568 2.01038,5.60596c0,2.09028 -0.71125,4.14444 -2.01038,5.60596c-1.29912,1.46151 -3.14067,2.45654 -6.05212,2.45654c-2.91146,0 -4.753,-0.99503 -6.05212,-2.45654c-1.29912,-1.46151 -2.01038,-3.51568 -2.01038,-5.60596c0,-2.09028 0.71125,-4.14444 2.01038,-5.60596c1.29912,-1.46151 3.14067,-2.45654 6.05212,-2.45654zM24.14551,67.15076c-1.4822,0.02317 -2.66581,1.242 -2.64551,2.72424v5.375c-0.01371,0.96921 0.49551,1.87072 1.33266,2.35932c0.83715,0.4886 1.87253,0.4886 2.70968,0c0.83715,-0.4886 1.34637,-1.39011 1.33266,-2.35932v-5.375c0.00995,-0.72643 -0.2746,-1.42595 -0.78881,-1.93917c-0.51421,-0.51322 -1.21427,-0.79642 -1.94068,-0.78507zM37.58301,67.15076c-1.4822,0.02317 -2.66581,1.242 -2.64551,2.72424v5.375c-0.01371,0.96921 0.49551,1.87072 1.33266,2.35932c0.83715,0.4886 1.87253,0.4886 2.70968,0c0.83715,-0.4886 1.34637,-1.39011 1.33266,-2.35932v-5.375c0.00995,-0.72643 -0.2746,-1.42595 -0.78881,-1.93917c-0.51421,-0.51322 -1.21427,-0.79642 -1.94068,-0.78507zM134.33301,67.15076c-1.4822,0.02317 -2.66581,1.242 -2.64551,2.72424v5.375c-0.01371,0.96921 0.49551,1.87072 1.33266,2.35932c0.83715,0.4886 1.87253,0.4886 2.70968,0c0.83715,-0.4886 1.34637,-1.39011 1.33266,-2.35932v-5.375c0.00995,-0.72643 -0.2746,-1.42595 -0.78881,-1.93917c-0.51421,-0.51322 -1.21427,-0.79642 -1.94068,-0.78507zM147.77051,67.15076c-1.4822,0.02317 -2.66581,1.242 -2.64551,2.72424v5.375c-0.01371,0.96921 0.49551,1.87072 1.33266,2.35932c0.83715,0.4886 1.87253,0.4886 2.70968,0c0.83715,-0.4886 1.34637,-1.39011 1.33266,-2.35932v-5.375c0.00995,-0.72643 -0.2746,-1.42595 -0.78881,-1.93917c-0.51421,-0.51322 -1.21427,-0.79642 -1.94068,-0.78507zM129,112.875c-0.96921,-0.01371 -1.87072,0.49551 -2.35932,1.33266c-0.4886,0.83715 -0.4886,1.87253 0,2.70968c0.4886,0.83715 1.39011,1.34637 2.35932,1.33266h5.375c0.96921,0.01371 1.87072,-0.49551 2.35932,-1.33266c0.4886,-0.83715 0.4886,-1.87253 0,-2.70968c-0.4886,-0.83715 -1.39011,-1.34637 -2.35932,-1.33266zM74.49939,129h23.00122l7.16492,21.5h-37.33105z"></path></g></g></svg>