<svg xmlns="http://www.w3.org/2000/svg" x="0px" y="0px"
width="100" height="100"
viewBox="0 0 172 172"
style=" fill:#000000;"><g fill="none" fill-rule="nonzero" stroke="none" stroke-width="1" stroke-linecap="butt" stroke-linejoin="miter" stroke-miterlimit="10" stroke-dasharray="" stroke-dashoffset="0" font-family="none" font-weight="none" font-size="none" text-anchor="none" style="mix-blend-mode: normal"><path d="M0,172v-172h172v172z" fill="none"></path><g fill="#0000ff"><path d="M80.26667,22.93333c-9.01857,0 -17.52403,4.25187 -22.93333,11.46667l-26.03516,34.71354c-8.01625,1.46268 -14.09818,8.44754 -14.09818,16.88646v57.33333c0,3.1648 2.56853,5.73333 5.73333,5.73333h126.13333c3.1648,0 5.73333,-2.56853 5.73333,-5.73333v-57.33333c0,-5.07352 -2.23982,-9.58399 -5.73333,-12.73203v-44.6013c-0.00032,-3.1663 -2.56703,-5.73302 -5.73333,-5.73333zM80.26667,34.4h57.33333v34.4h-91.73333l20.63776,-27.52448c3.24803,-4.33214 8.34428,-6.87552 13.76224,-6.87552zM120.4,86h11.46667c3.1648,0 5.73333,2.56853 5.73333,5.73333c0,3.1648 -2.56853,5.73333 -5.73333,5.73333h-11.46667c-3.1648,0 -5.73333,-2.56853 -5.73333,-5.73333c0,-3.1648 2.56853,-5.73333 5.73333,-5.73333z"></path></g></g></svg>