<svg xmlns="http://www.w3.org/2000/svg" x="0px" y="0px"
width="100" height="100"
viewBox="0 0 172 172"
style=" fill:#000000;"><g fill="none" fill-rule="nonzero" stroke="none" stroke-width="1" stroke-linecap="butt" stroke-linejoin="miter" stroke-miterlimit="10" stroke-dasharray="" stroke-dashoffset="0" font-family="none" font-weight="none" font-size="none" text-anchor="none" style="mix-blend-mode: normal"><path d="M0,172v-172h172v172z" fill="none"></path><g fill="#0000ff"><path d="M71.595,17.2c-1.63937,0.30906 -2.82187,1.76031 -2.795,3.44v13.76c0,1.89469 1.54531,3.44 3.44,3.44h13.76v10.32h-17.2c-2.58,0 -5.06594,1.04813 -6.88,2.9025c-0.06719,0.02688 -0.14781,0.06719 -0.215,0.1075l-15.1575,17.63h-8.7075c-2.87562,0 -5.375,1.29 -7.2025,3.1175c-1.8275,1.8275 -3.1175,4.32688 -3.1175,7.2025v10.32h-6.88v-17.2c0,-1.89469 -1.54531,-3.44 -3.44,-3.44h-13.76c-0.1075,0 -0.215,0 -0.3225,0c-1.77375,0.16125 -3.13094,1.65281 -3.1175,3.44v55.04c0,1.89469 1.54531,3.44 3.44,3.44h13.76c1.89469,0 3.44,-1.54531 3.44,-3.44v-17.2h6.88v10.32c0,2.88906 1.27656,5.375 3.1175,7.2025c1.84094,1.8275 4.35375,3.1175 7.2025,3.1175h8.7075l15.1575,17.63c0.06719,0.04031 0.14781,0.08063 0.215,0.1075c1.80063,1.84094 4.3,2.9025 6.88,2.9025h44.1825c2.58,0 5.07938,-1.06156 6.88,-2.9025l25.2625,-25.6925c1.81406,-1.84094 2.795,-4.31344 2.795,-6.88v-5.805h3.44v13.76c0.01344,1.89469 1.54531,3.42656 3.44,3.44h13.76c1.89469,-0.01344 3.42656,-1.54531 3.44,-3.44v-55.04c-0.01344,-1.89469 -1.54531,-3.42656 -3.44,-3.44h-13.76c-1.89469,0.01344 -3.42656,1.54531 -3.44,3.44v13.76h-3.44v-24.6175c0,-5.33469 -4.34031,-9.7825 -9.675,-9.7825h-31.605v-10.32h13.76c1.89469,0 3.44,-1.54531 3.44,-3.44v-13.76c0,-1.89469 -1.54531,-3.44 -3.44,-3.44h-48.16c-0.1075,0 -0.215,0 -0.3225,0c-0.1075,0 -0.215,0 -0.3225,0zM75.68,24.08h41.28v6.88h-13.76c-1.89469,0 -3.44,1.54531 -3.44,3.44v13.76h-6.88v-13.76c0,-1.89469 -1.54531,-3.44 -3.44,-3.44h-13.76zM68.8,55.04h69.445c1.53188,0 2.795,1.23625 2.795,2.9025v28.0575c0.01344,1.89469 1.54531,3.42656 3.44,3.44h10.32c1.89469,-0.01344 3.42656,-1.54531 3.44,-3.44v-13.76h6.88v48.16h-6.88v-13.76c-0.01344,-1.89469 -1.54531,-3.42656 -3.44,-3.44h-10.32c-1.89469,0.01344 -3.42656,1.54531 -3.44,3.44v9.245c0,0.79281 -0.33594,1.505 -0.86,2.0425l-25.2625,25.6925c-0.52406,0.5375 -1.22281,0.86 -1.935,0.86h-44.1825c-0.71219,0 -1.41094,-0.3225 -1.935,-0.86l-16.125,-18.5975c-0.645,-0.73906 -1.58562,-1.1825 -2.58,-1.1825h-10.32c-0.57781,0 -1.51844,-0.44344 -2.2575,-1.1825c-0.73906,-0.73906 -1.1825,-1.63937 -1.1825,-2.2575v-41.28c0,-0.56437 0.43,-1.505 1.1825,-2.2575c0.7525,-0.7525 1.69313,-1.1825 2.2575,-1.1825h10.32c0.99438,0 1.935,-0.44344 2.58,-1.1825l16.125,-18.5975c0.52406,-0.5375 1.22281,-0.86 1.935,-0.86zM92.88,68.8l-17.2,34.4h17.2l-10.32,30.96l27.52,-37.84h-17.2l17.2,-27.52zM6.88,75.68h6.88v17.2c0,1.89469 1.54531,3.44 3.44,3.44h10.32v6.88h-10.32c-1.89469,0 -3.44,1.54531 -3.44,3.44v17.2h-6.88z"></path></g></g></svg>