<svg xmlns="http://www.w3.org/2000/svg" x="0px" y="0px"
width="60" height="60"
viewBox="0 0 172 172"
style=" fill:#000000;"><g fill="none" fill-rule="nonzero" stroke="none" stroke-width="1" stroke-linecap="butt" stroke-linejoin="miter" stroke-miterlimit="10" stroke-dasharray="" stroke-dashoffset="0" font-family="none" font-weight="none" font-size="none" text-anchor="none" style="mix-blend-mode: normal"><path d="M0,172v-172h172v172z" fill="none"></path><g><path d="M171.47325,83.506c0.03225,0.15767 0.05733,0.31175 0.08242,0.46942c-0.0215,-0.15408 -0.05375,-0.31175 -0.08242,-0.46942M86,50.16667c-47.73717,0 -86,17.89158 -86,35.82975c0,17.83067 38.57817,35.83692 86,35.83692c47.42183,0 86,-18.05283 86,-35.83692c0,-17.7805 -38.57817,-35.82975 -86,-35.82975" fill="#000000"></path><path d="M86,57.33333c48.074,0 76.74067,17.974 78.72583,27.66692l0.00717,0.05017l0.03583,0.15767c0.043,0.26517 0.0645,0.53033 0.0645,0.79192c0,10.10858 -29.93158,28.66667 -78.83333,28.66667c-48.90175,0 -78.83333,-18.56167 -78.83333,-28.66667c0,-9.73233 27.82458,-28.66667 78.83333,-28.66667M86,53.75c-49.2995,0 -82.41667,18.404 -82.41667,32.25c0,13.55575 33.84458,32.25 82.41667,32.25c48.57208,0 82.41667,-18.69425 82.41667,-32.25c0,-0.50167 -0.04658,-1.00333 -0.13617,-1.50858l-0.26517,0.03942l0.258,-0.0645c-0.00358,-0.01433 -0.00358,-0.03225 -0.00717,-0.04658l-0.26158,0.03583l0.25442,-0.06092c-2.52983,-13.12217 -35.60042,-30.64467 -82.259,-30.64467z" fill="#ffffff"></path><path d="M131.92042,76.411c-0.3225,0 -0.48733,0.03942 -0.63783,0.33683v0c-0.49808,0.95675 -6.57183,10.05842 -7.70058,11.825v0c-0.18992,0.26875 -0.42283,0.23292 -0.4515,-0.07525v0c-0.11467,-1.04992 -1.02125,-2.25392 -2.451,-2.83442v0c-1.08575,-0.44075 -2.15358,-0.52317 -3.25725,-0.37625v0c-1.99592,0.26875 -3.77683,1.32225 -5.34275,2.51192v0c-2.36142,1.79167 -4.39317,4.11725 -7.01975,5.83008v0c-1.43333,0.93525 -3.397,1.75225 -4.7085,0.53392v0c-1.18967,-1.10367 -1.05708,-3.55108 0.76325,-5.44308v0c0.1935,-0.20067 0.42283,-0.03583 0.387,0.14333v0c-0.172,0.85642 0.03942,1.70925 0.688,2.30767v0c0.7955,0.7095 1.93142,0.79192 2.9025,0.31892v0c1.14667,-0.56617 1.82392,-1.66625 2.01742,-2.91325v0c0.30458,-1.93142 -1.1825,-3.63708 -3.04583,-3.77325v0c-1.51217,-0.1075 -2.96342,0.41925 -4.37525,1.58742v0c-0.70592,0.58767 -1.11083,1.02125 -1.72358,1.892v0c-0.1505,0.21142 -0.37983,0.23292 -0.37267,-0.08242v0c0.07167,-2.47608 -0.95317,-3.86642 -2.99925,-3.913v0c-1.58742,-0.03583 -3.28592,0.82775 -4.60817,1.87767v0c-1.44767,1.16458 -2.71617,2.70542 -4.07425,4.15667v0c-0.16842,0.17917 -0.31892,0.172 -0.3655,-0.172v0c-0.03942,-1.64117 -0.4515,-3.22858 -1.21117,-4.35733v0c-0.26875,-0.39417 -0.83133,-0.58767 -1.30792,-0.3225v0c-0.21858,0.11825 -0.98183,0.46942 -1.53725,0.91733v0c-0.27233,0.22575 -0.38342,0.55542 -0.26158,0.97825v0c0.731,2.44742 0.57333,5.23167 -0.42283,7.58233v0c-0.91375,2.15358 -2.6875,4.09933 -4.76942,4.75508v0c-1.37242,0.43717 -2.80217,0.22217 -3.68367,-0.99258v0c-1.21117,-1.68058 -0.72383,-4.601 1.08575,-7.02692v0c1.59817,-2.13567 3.90225,-3.49017 6.20633,-4.36808v0c0.27233,-0.10392 0.32608,-0.2795 0.25083,-0.50883v0c-0.12542,-0.37625 -0.32608,-0.89225 -0.40492,-1.12875v0c-0.21142,-0.56258 -0.80267,-0.65217 -1.5265,-0.57333v0c-1.67342,0.1935 -3.182,0.76683 -4.67267,1.56592v0c-3.90225,2.08908 -5.85875,6.13467 -6.71517,8.299v0c-0.41208,1.04275 -0.76683,1.68775 -1.22192,2.26467v0c-0.61275,0.774 -1.38675,1.47633 -2.80217,2.71975v0c-0.12542,0.11108 -0.22217,0.34758 -0.11467,0.56975v0c0.14692,0.29742 0.8815,1.33658 1.08575,1.42617v0c0.22933,0.11108 0.49808,-0.043 0.602,-0.12183v0c0.989,-0.67008 2.1715,-1.73075 2.752,-2.451v0c0.20067,-0.24725 0.4085,-0.14333 0.516,0.23292v0c0.54108,1.92425 1.95292,3.50092 3.90942,4.15667v0c3.57975,1.20758 7.29208,-0.54108 10.09425,-3.58333v0c1.78092,-1.93142 2.42233,-3.17842 3.10675,-4.0205v0c1.15383,-1.43333 3.43642,-4.64042 6.15617,-6.69725v0c0.99617,-0.76325 2.17867,-1.34017 2.76633,-0.95675v0c0.47658,0.30817 0.63067,1.02842 -0.13258,2.41517v0c-2.76992,5.06325 -6.84775,11.00442 -7.59667,12.4485v0c-0.13617,0.24725 -0.0215,0.44792 0.24367,0.44792v0c1.45125,-0.00717 2.88817,-0.00358 4.20325,-0.00358v0c0.21858,-0.01075 0.31892,-0.11108 0.42642,-0.26875v0c2.12492,-3.32533 4.128,-6.49658 6.27083,-9.77175v0c0.12183,-0.18992 0.22933,-0.043 0.2365,0.043v0c0.043,0.76325 0.23292,1.80242 0.68083,2.48325v0c0.80983,1.26133 1.96008,1.80242 3.23575,1.81317v0c1.0105,0.01075 1.5265,-0.14333 2.61583,-0.54825v0c0.89225,-0.33325 1.60892,-0.76325 2.15358,-1.15742v0c0.31892,-0.22217 0.37625,0.1505 0.36908,0.20783v0c-0.49092,2.64092 0.11825,5.77275 2.74125,7.06992v0c3.14258,1.548 6.59692,-0.63067 8.58567,-2.59433v0c0.1935,-0.18992 0.40133,-0.16842 0.42283,0.2365v0c0.03942,0.74892 0.38342,1.64117 1.00333,2.26825v0c1.66267,1.66983 5.02742,1.00692 8.39575,-1.60175v0c2.16433,-1.66983 4.429,-4.03125 6.47508,-6.53242v0c0.07883,-0.09675 0.13258,-0.25083 -0.0215,-0.41208v0c-0.31175,-0.3225 -0.76325,-0.69875 -1.07142,-0.98542v0c-0.13975,-0.11825 -0.34758,-0.086 -0.46583,0.00717v0c-2.09625,1.99233 -3.98467,4.26775 -6.71517,6.149v0c-0.91733,0.64142 -2.3865,1.161 -3.04583,0.26875v0c-0.258,-0.34758 -0.22575,-0.82775 0.02867,-1.45483v0c0.7955,-1.98158 13.39092,-21.15958 14.04308,-22.29192v0c0.11467,-0.19708 0,-0.34042 -0.25083,-0.34042v0c-1.29717,0 -2.99567,0.00358 -4.34658,0.00358M111.9505,99.975c-0.64858,-0.33683 -0.92808,-1.24342 -0.91375,-1.97083v0c0.03225,-2.06758 0.946,-4.18533 2.64092,-6.27083v0c2.06758,-2.54058 4.35017,-3.86283 5.85158,-3.139v0c1.55158,0.73817 1.0535,2.537 0.36192,3.94525v0c-0.05017,0.11108 -0.05375,0.20067 -0.02867,0.29383v0c0.02508,0.14692 0.215,0.28667 0.40133,0.35475v0c0.06808,0.02508 0.10392,0.07167 0.02867,0.22575v0c-0.53392,1.14667 -1.02842,1.81317 -1.6985,2.80575v0c-0.61633,0.92092 -1.3115,1.64117 -2.15717,2.33275v0c-0.98183,0.80983 -2.25392,1.677 -3.45433,1.677v0c-0.34758,0 -0.69875,-0.07525 -1.032,-0.25442" fill="#ffffff"></path><path d="M64.973,64.7795c-1.204,0 -2.408,0.04658 -3.62633,0.14333v0c-7.74,0.65217 -15.10375,5.01308 -15.12167,11.62433v0c0,3.35758 2.37933,6.07375 6.07375,5.9555v0c4.343,-0.14692 7.90842,-3.62633 9.77533,-8.01233v0c0.70592,-1.66267 -0.60558,-2.35425 -1.22908,-1.3975v0c-1.11442,1.72717 -2.68392,3.06375 -4.38242,3.89508v0c-2.0425,1.00333 -4.22833,0.731 -4.88767,-0.93167v0c-0.93167,-2.33992 1.00333,-5.84083 5.42158,-7.49275v0c6.37833,-2.36142 13.05408,-0.79908 19.47542,0.4085v0c0.09317,0 0.43358,0.18992 0.129,0.34758v0c-1.14667,0.62708 -2.279,1.13592 -4.042,2.65525v0c-1.2685,1.08217 -2.92042,2.52267 -4.20325,4.09575v0c-1.2685,1.548 -2.1715,2.93117 -3.36117,4.45767v0c-0.16842,0.22217 -0.37267,0.21142 -0.36908,0.21142v0c-2.90608,0.49092 -5.75125,0.817 -8.35633,2.63017v0c-0.5375,0.37267 -0.774,1.032 -0.44433,1.53725v0c0.29383,0.44792 0.96392,0.4945 1.42617,0.15767v0c1.61967,-1.21117 3.28592,-1.78092 5.19583,-1.83108v0c0.08242,0.00358 0.12183,0.0215 0.14692,0.06808v0c0.0215,0.02867 0,0.08958 -0.02867,0.13617v0c-2.86308,3.97033 -3.57975,4.86617 -5.72975,7.32792v0c-1.10367,1.26492 -2.18583,2.33275 -3.397,3.44358v0c-4.88767,4.54008 -10.14442,4.46483 -12.02925,1.61608v0c-1.12517,-1.70925 -0.97825,-3.50092 -0.2365,-4.99158v0c0.90658,-1.82392 2.74483,-3.15692 4.27133,-3.93808v0c0.56617,-0.29025 0.731,-1.01408 0.16125,-1.67342v0c-0.35833,-0.43358 -1.23625,-0.50883 -1.88842,-0.39058v0c-2.00308,0.37267 -4.36808,1.88483 -5.76558,3.70517v0c-1.57308,2.04608 -2.36142,4.52575 -2.09625,7.31v0c0.473,5.02742 4.61175,7.92992 9.30592,7.89767v0c3.73742,-0.03225 7.25983,-1.161 11.49533,-5.461v0c3.95242,-4.01333 7.5465,-10.00108 10.91483,-15.55525v0c0.10392,-0.17917 0.17917,-0.27592 0.69158,-0.33683v0c2.11058,-0.26158 5.23167,-0.56617 7.23117,-0.68083v0c0.44792,-0.02508 0.5375,-0.01792 0.71308,0.20425v0c0.52317,0.65575 1.30433,1.21475 1.93142,1.55158v0c0.30458,0.16842 0.4515,0.24725 0.69158,0.25442v0c0.29742,0.00717 0.52675,-0.15408 0.67367,-0.3225v0c0.21142,-0.23292 0.27233,-0.53392 0.15767,-0.731v0c-0.11825,-0.20425 -1.51575,-0.97825 -1.55875,-1.29v0c-0.03225,-0.19708 0.18275,-0.24367 0.18275,-0.24367v0c1.02483,-0.3225 2.09267,-0.98183 2.73767,-2.22167v0c0.63425,-1.21833 0.73817,-2.84875 -0.42642,-3.75175v0c-1.01767,-0.79192 -2.5585,-0.6665 -3.78758,0.43358v0c-1.20042,1.07142 -1.60175,2.63017 -1.43692,3.99542v0c0.02867,0.2365 0.0215,0.31892 -0.30817,0.344v0c-1.849,0.14692 -3.62992,0.19708 -5.6115,0.301v0c-0.13258,0.01075 -0.172,-0.07883 -0.09675,-0.172v0c2.279,-3.96317 5.68675,-6.78325 9.44925,-9.56033v0c0.24725,-0.18633 0.172,-0.54108 0.16125,-0.8385v0c6.80117,1.47633 13.36942,4.22833 20.42858,4.16742v0c2.91683,-0.02508 5.70825,-0.46583 8.37425,-1.93142v0c2.34708,-1.28283 3.30383,-2.46533 3.37192,-3.69442v0c0.05733,-0.85283 -0.53392,-1.38675 -1.376,-1.20758v0c-7.12725,1.63758 -13.92483,1.61967 -21.01983,0.76325v0c-8.04458,-0.97467 -15.76308,-2.98133 -23.76825,-2.98133v0c0,0 0,0 -0.0215,0M77.25308,79.06267c-0.10392,-0.7525 0.14333,-1.763 0.946,-2.47608v0c0.40133,-0.35833 0.94958,-0.44075 1.28642,-0.15408v0c0.37625,0.3225 0.19708,1.12158 -0.18275,1.677v0c-0.41208,0.61275 -1.118,1.1395 -1.75942,1.2685v0c-0.0215,0.00358 -0.03583,0.00717 -0.05375,0.00717v0c-0.10033,-0.00358 -0.18992,-0.07883 -0.2365,-0.3225" fill="#ffffff"></path></g></g></svg>