<svg xmlns="http://www.w3.org/2000/svg" x="0px" y="0px"
width="60" height="60"
viewBox="0 0 50 50"
style=" fill:#000000;">    <path d="M 11 4 C 6.04 4 2 6 2 11.5 C 2 17 6.04 19 11 19 L 25 19 L 25 10 L 14 10 L 14 13 L 18 13 L 18 15 L 12.119141 15 C 10.469141 15 9 15 9 11.5 C 9 8.12 10.35 8 12 8 L 25 8 L 25 4 L 11 4 z M 27 4 L 27 8 L 34 8 L 34 19 L 41 19 L 41 8 L 48 8 L 48 4 L 27 4 z M 2 21 L 2 26 L 4 26 L 4 40 L 2 40 L 2 45 L 16 45 L 16 40 L 14 40 L 14 36 L 29 36 L 30.701172 40.402344 C 31.056172 41.111344 31.480016 41.795469 32.041016 42.355469 C 34.657016 44.968469 38.667 45 44 45 L 48 45 L 48 40 L 43 40 C 41 40 40 38 39 36 L 41 36 C 45.19 36 48 33 48 28.5 C 48 24 45.19 21 41 21 L 2 21 z M 14 26 L 37 26 C 38 26 39 27 39 28.5 C 39 30 38 31 37 31 L 14 31 L 14 26 z"></path></svg>