<svg xmlns="http://www.w3.org/2000/svg" x="0px" y="0px"
width="60" height="60"
viewBox="0 0 172 172"
style=" fill:#000000;"><g fill="none" fill-rule="none" stroke="none" stroke-width="1" stroke-linecap="butt" stroke-linejoin="miter" stroke-miterlimit="10" stroke-dasharray="" stroke-dashoffset="0" font-family="none" font-weight="none" font-size="none" text-anchor="none" style="mix-blend-mode: normal"><path d="M0,172v-172h172v172z" fill="none" fill-rule="nonzero"></path><g fill-rule="evenodd"><path d="M86,32.25c39.56,0 64.5,19.44317 64.5,53.75c0,34.30683 -22.23458,53.75 -64.5,53.75c-42.26542,0 -64.5,-19.40375 -64.5,-53.75c0,-34.34625 24.94,-53.75 64.5,-53.75zM86,21.5c48.8695,0 78.83333,22.84375 78.83333,64.5c0,41.65625 -26.62058,64.5 -78.83333,64.5c-52.21275,0 -78.83333,-22.79358 -78.83333,-64.5c0,-41.70642 29.96383,-64.5 78.83333,-64.5z" fill="#000000"></path><path d="M86,114.66667c-11.55983,-24.66408 -22.66458,-26.73167 -60.91667,-39.41667c-3.16408,-1.07858 -5.36783,-3.01 -7.37808,-4.42542l7.5895,-18.97017c2.09267,0.86 3.77325,3.612 6.95525,5.47892c3.0315,1.849 12.41267,5.23883 17.91667,7.16667c18.32158,6.41775 29.35108,15.03208 35.83333,28.66667zM86,114.66667c11.55983,-24.66408 22.66458,-26.73167 60.91667,-39.41667c2.6015,-0.93883 4.97367,-1.892 7.37808,-4.42542l-7.5895,-18.97017c-1.849,2.193 -4.01692,3.85208 -6.95525,5.47892c-3.0315,1.849 -12.41267,5.23883 -17.91667,7.16667c-18.32158,6.41775 -29.35108,15.03208 -35.83333,28.66667z" fill="#000000"></path><path d="M28.49825,114.66667l-10.58158,-7.16667c0,0 -9.33817,-33.56867 3.58333,-46.58333c21.53942,7.1595 65.47825,25.3915 64.5,53.75c-8.428,-19.58292 -21.758,-24.90775 -21.758,-24.90775c-14.35842,-7.04483 -26.51308,-10.363 -39.16225,-14.51608l-2.4725,-1.06067c-0.45508,2.32917 -4.22475,23.62492 5.891,40.4845z" fill="#000000"></path><path d="M143.51608,114.66667l10.58158,-7.16667c0,0 9.34175,-33.56867 -3.58333,-46.58333c-21.53583,7.1595 -65.47825,25.3915 -64.49642,53.75c8.428,-19.58292 21.758,-24.90775 21.758,-24.90775c14.35842,-7.04483 26.51308,-10.363 39.16225,-14.51608l2.4725,-1.06067c0.45508,2.32917 4.22117,23.62492 -5.89458,40.4845z" fill="#000000"></path><path d="M30.09283,55.7925c0,0 -1.75942,-1.20042 -1.42617,-5.62583c0.33325,-4.42542 14.491,-21.5 57.33333,-21.5c42.84233,0 57.26883,21.5 57.26883,21.5c0.20067,2.42592 -0.258,4.3215 -1.22192,5.79783c-0.88867,-0.61633 -12.66708,-23.779 -56.04692,-23.7145c-43.43717,0.129 -54.93967,22.90825 -55.90717,23.5425z" fill="#cccccc"></path><path d="M9.976,107.54658c-0.67367,-2.15358 -1.15742,-4.63683 -1.64117,-7.21325l9.5675,7.21325c7.64325,23.34183 28.87092,39.45967 68.08333,39.41667c38.90067,-0.04658 60.35767,-16.17158 68.09767,-39.46325l9.58183,-7.16308c-0.49092,2.59792 -1.04992,5.05967 -1.763,7.20608h0.09317c-8.10908,27.94642 -33.62958,43 -76.00967,43c-42.39083,0 -67.91492,-15.02492 -76.01325,-43h0.00358z" fill="#000000"></path></g></g></svg>