<svg xmlns="http://www.w3.org/2000/svg" x="0px" y="0px"
width="60" height="60"
viewBox="0 0 172 172"
style=" fill:#000000;"><g fill="none" fill-rule="nonzero" stroke="none" stroke-width="1" stroke-linecap="butt" stroke-linejoin="miter" stroke-miterlimit="10" stroke-dasharray="" stroke-dashoffset="0" font-family="none" font-weight="none" font-size="none" text-anchor="none" style="mix-blend-mode: normal"><path d="M0,172v-172h172v172z" fill="none"></path><g><path d="M86,11.825c-40.9661,0 -74.175,33.2089 -74.175,74.175c0,40.9661 33.2089,74.175 74.175,74.175c40.9661,0 74.175,-33.2089 74.175,-74.175c0,-40.9661 -33.2089,-74.175 -74.175,-74.175zM86,142.975c-31.4674,0 -56.975,-25.5076 -56.975,-56.975c0,-31.4674 25.5076,-56.975 56.975,-56.975c31.4674,0 56.975,25.5076 56.975,56.975c0,31.4674 -25.5076,56.975 -56.975,56.975z" fill="#000000"></path><path d="M86,151.575c-36.21675,0 -65.575,-29.35825 -65.575,-65.575h-8.6c0,40.9661 33.2089,74.175 74.175,74.175c40.9661,0 74.175,-33.2089 74.175,-74.175h-8.6c0,36.21675 -29.35825,65.575 -65.575,65.575z" fill="#000000"></path><path d="M86,29.025c31.4674,0 56.975,25.5076 56.975,56.975h8.6c0,-36.21675 -29.35825,-65.575 -65.575,-65.575c-36.21675,0 -65.575,29.35825 -65.575,65.575h8.6c0,-31.4674 25.5076,-56.975 56.975,-56.975z" fill="#000000"></path><path d="M86,161.25c-41.49285,0 -75.25,-33.75715 -75.25,-75.25c0,-41.49285 33.75715,-75.25 75.25,-75.25c41.49285,0 75.25,33.75715 75.25,75.25c0,41.49285 -33.75715,75.25 -75.25,75.25zM86,12.9c-40.3082,0 -73.1,32.7918 -73.1,73.1c0,40.3082 32.7918,73.1 73.1,73.1c40.3082,0 73.1,-32.7918 73.1,-73.1c0,-40.3082 -32.7918,-73.1 -73.1,-73.1zM86,144.05c-32.0092,0 -58.05,-26.0408 -58.05,-58.05c0,-32.0092 26.0408,-58.05 58.05,-58.05c32.0092,0 58.05,26.0408 58.05,58.05c0,32.0092 -26.0408,58.05 -58.05,58.05zM86,30.1c-30.8224,0 -55.9,25.0776 -55.9,55.9c0,30.82455 25.0776,55.9 55.9,55.9c30.82455,0 55.9,-25.07545 55.9,-55.9c0,-30.8224 -25.07545,-55.9 -55.9,-55.9z" fill="#000000"></path><path d="M1.0879,68.4173v2.1973v30.7708v2.1973c56.4891,9.1762 113.0986,9.13965 169.82205,0v-2.1973v-30.7708v-2.1973c-56.4891,-9.17835 -113.09645,-9.13965 -169.82205,0z" fill="#000000"></path><path d="M158.9366,88.2231h-145.8732c-5.05035,0 -9.47075,-2.709 -11.9755,-6.7725v19.93695v2.1973c56.4891,9.1762 113.0986,9.13965 169.82205,0v-2.1973v-19.93695c-2.5026,4.0635 -6.923,6.7725 -11.97335,6.7725z" fill="#000000"></path><path d="M85.82585,111.53125c-28.42945,0 -56.79225,-2.28115 -84.90995,-6.8499l-0.9159,-0.14835v-37.066l0.91805,-0.14835c56.6912,-9.1332 113.93925,-9.1332 170.1639,0l0.91805,0.14835v37.066l-0.91805,0.14835c-28.3413,4.5666 -56.83095,6.8499 -85.2561,6.8499zM2.17795,102.63455c55.4012,8.8967 111.79355,8.8967 167.64625,-0.00215v-33.26695c-55.39905,-8.901 -111.7914,-8.901 -167.64625,0.00215z" fill="#000000"></path><path d="M68.5076,84.1897c3.33035,0.3741 5.63515,0.6321 6.2995,4.21615c0,0.28165 0.08385,0.8944 0.08385,1.93285c0,0.66005 0,1.70925 0,2.8208c0,3.27015 -2.45315,3.4916 -5.9469,3.4916h-14.52755c-0.50095,0 -0.5805,-0.09245 -0.5805,-0.66005v-2.2188c0,-0.5676 0.08385,-0.66005 0.5805,-0.66005h16.1766c0.5805,0 0.75035,-0.1892 0.83205,-0.66005v-2.6015v-0.85355c-0.08385,-0.3784 -0.16555,-0.946 -0.9159,-1.03415c-1.5824,-0.09245 -8.3334,-0.9675 -11.4982,-1.3416c-4.0807,-0.47085 -5.0138,-1.76515 -5.17935,-3.46365c-0.0817,-0.56545 -0.0817,-1.31795 -0.0817,-1.978c0,-0.5676 -0.01075,-1.32655 0.0731,-1.9909c0,-3.27015 2.0124,-3.9388 5.5083,-3.9388h14.8952c0.50095,0 0.66865,0.09675 0.66865,0.5676v2.42305c0,0.47085 -0.16555,0.66005 -0.66865,0.5633h-16.01535c-0.5805,0 -0.83205,0.28165 -0.9159,0.9417v0.70735v1.53725c0,0.47085 0.2494,0.84925 0.83205,0.9417c1.5824,0.19135 8.55055,1.06855 10.3802,1.25775z" fill="#ffffff"></path><path d="M94.39145,84.1897c3.34755,0.3741 5.66525,0.6321 6.33605,4.21615c0,0.28165 0.086,0.8944 0.086,1.93285c0,0.66005 0,1.70925 0,2.8208c0,3.27015 -2.46605,3.4916 -5.9813,3.4916h-14.60925c-0.5031,0 -0.5848,-0.09245 -0.5848,-0.66005v-2.2188c0,-0.5676 0.086,-0.66005 0.5848,-0.66005h16.26905c0.5848,0 0.75465,-0.1892 0.83635,-0.66005v-2.6015v-0.85355c-0.086,-0.3784 -0.16555,-0.946 -0.92235,-1.03415c-1.591,-0.09245 -8.3807,-0.9675 -11.5627,-1.3416c-4.10435,-0.47085 -5.04175,-1.76515 -5.20945,-3.46365c-0.08385,-0.56545 -0.08385,-1.31795 -0.08385,-1.978c0,-0.5676 -0.01075,-1.32655 0.07525,-1.9909c0,-3.27015 2.02315,-3.9388 5.5384,-3.9388h14.97905c0.5031,0 0.67295,0.09675 0.67295,0.5676v2.42305c0,0.47085 -0.16555,0.66005 -0.67295,0.5633h-16.10565c-0.5848,0 -0.83635,0.28165 -0.92235,0.9417v0.70735v1.53725c0,0.47085 0.25155,0.84925 0.83635,0.9417c1.591,0.19135 8.6,1.06855 10.4404,1.25775z" fill="#ffffff"></path><path d="M40.3082,75.25c0.46225,0 0.5418,0.1892 0.5418,0.66005v20.17345c0,0.5676 -0.07955,0.66005 -0.5418,0.66005h-2.3693c-0.59125,0 -2.5413,0.05805 -3.94095,-1.8834c-3.225,-4.6698 -11.06605,-15.95515 -11.06605,-15.95515v17.1828c0,0.5676 -0.07955,0.66005 -0.5418,0.66005h-2.4983c-0.46225,-0.0043 -0.5418,-0.09675 -0.5418,-0.6622v-20.17345c0,-0.473 0.07955,-0.6622 0.5418,-0.6622h1.5523c2.0253,0 3.49805,0.086 4.48705,1.79525c0.9933,1.64905 11.266,16.00245 11.266,16.00245v-17.13335c0,-0.47085 0.07955,-0.66005 0.5418,-0.66005h2.57355v-0.0043z" fill="#ffffff"></path><path d="M152.1082,75.25c0.46225,0 0.5418,0.1892 0.5418,0.66005v20.17345c0,0.5676 -0.07955,0.66005 -0.5418,0.66005h-2.3693c-0.59125,0 -2.5413,0.05805 -3.94095,-1.8834c-3.225,-4.6698 -11.06605,-15.95515 -11.06605,-15.95515v17.1828c0,0.5676 -0.07955,0.66005 -0.5418,0.66005h-2.50045c-0.46225,0 -0.5418,-0.09245 -0.5418,-0.66005v-20.17345c0.00215,-0.47515 0.0817,-0.66435 0.54395,-0.66435h1.5523c2.0253,0 3.49805,0.086 4.48705,1.79525c0.9933,1.64905 11.266,16.00245 11.266,16.00245v-17.13335c0,-0.47085 0.07955,-0.66005 0.5418,-0.66005h2.57355v-0.0043z" fill="#ffffff"></path><path d="M48.63515,75.34675c0.28165,0 0.33755,0.1849 0.33755,0.5633v20.1799c0,0.47085 -0.0559,0.66005 -0.39345,0.66005h-2.91755c-0.33755,0 -0.39345,-0.09675 -0.39345,-0.66435v-20.1799c0,-0.3784 0.0559,-0.5633 0.28165,-0.5633h3.08525z" fill="#ffffff"></path><path d="M126.5533,95.7094c-1.9479,-5.46745 -6.28015,-18.1933 -6.28015,-18.1933c-0.86645,-2.35855 -1.29645,-2.2661 -2.9584,-2.2661c-0.56975,0 -1.11155,0 -1.69205,0c-0.5805,0 -1.1223,0 -1.69205,0c-1.61895,0 -2.09195,-0.09245 -2.9584,2.2661c0,0 -4.33225,12.7237 -6.28015,18.1933c-0.36335,0.9417 -0.14405,0.9417 0.43215,0.9417h2.89605c0.2881,0 0.43215,-0.1849 0.5031,-0.3741c0,0 0.4816,-1.31365 1.16315,-3.1863h11.87445c0.68585,1.87265 1.16315,3.1863 1.16315,3.1863c0.07095,0.1892 0.215,0.3741 0.5031,0.3741h2.89605c0.57405,0 0.79335,0 0.43,-0.9417zM110.9873,89.51955c1.7329,-4.7515 3.73885,-10.27055 3.73885,-10.3243c0.07095,-0.1892 0.2193,-0.28165 0.43215,-0.28165c0.06665,-0.08815 0.2623,-0.09245 0.46225,-0.09675c0.19995,0 0.3956,0.0043 0.46655,0.09245c0.2193,0 0.36335,0.09245 0.43215,0.28165c0,0.05375 2.00595,5.57495 3.73885,10.3243h-9.2751v0.0043z" fill="#ffffff"></path></g></g></svg>