<svg xmlns="http://www.w3.org/2000/svg" x="0px" y="0px"
width="100" height="100"
viewBox="0 0 172 172"
style=" fill:#000000;"><g fill="none" fill-rule="nonzero" stroke="none" stroke-width="1" stroke-linecap="butt" stroke-linejoin="miter" stroke-miterlimit="10" stroke-dasharray="" stroke-dashoffset="0" font-family="none" font-weight="none" font-size="none" text-anchor="none" style="mix-blend-mode: normal"><path d="M0,172v-172h172v172z" fill="none"></path><g fill="#0000ff"><path d="M86,6.88c-43.62608,0 -79.12,35.49392 -79.12,79.12c0,43.62608 35.49392,79.12 79.12,79.12c43.62608,0 79.12,-35.49392 79.12,-79.12c0,-43.62608 -35.49392,-79.12 -79.12,-79.12zM85.99328,30.96c1.03811,0 2.05308,0.09754 3.07719,0.15453c-0.08521,0.33012 -0.1734,0.6628 -0.15453,1.02125l1.59906,31.32953c0.07568,1.40008 0.98701,2.61623 2.30453,3.07719c2.43896,0.85312 4.66077,2.13097 6.61125,3.80281c0.63984,0.54696 1.43239,0.83312 2.23735,0.83312c0.56416,0 1.13009,-0.1412 1.64609,-0.42328l27.80891,-15.13734c0.19033,-0.10361 0.31472,-0.27111 0.47703,-0.40313c1.18624,1.75127 2.24301,3.5892 3.225,5.47578c-0.4803,0.07455 -0.95401,0.23486 -1.38406,0.52406l-25.73953,17.22015c-1.15584,0.774 -1.72629,2.16167 -1.45797,3.52735c0.26488,1.33816 0.3964,2.69981 0.3964,4.03797c0,1.33816 -0.1348,2.69981 -0.40313,4.03797c-0.27176,1.36224 0.30229,2.74663 1.45125,3.52063l26.22328,17.65015c0.24767,0.16656 0.50937,0.28158 0.77938,0.37625c-0.97613,1.85009 -2.03834,3.64306 -3.21156,5.36156c-0.2139,-0.20587 -0.4127,-0.42799 -0.68531,-0.57781l-14.76109,-8.12297c-0.22704,-0.1376 -0.44435,-0.29713 -0.69203,-0.37625l-12.01985,-6.61797c-1.2556,-0.69488 -2.80983,-0.52912 -3.89687,0.40312c-1.95048,1.67184 -4.17229,2.95641 -6.61125,3.80953c-1.31752,0.46096 -2.22901,1.67383 -2.29781,3.07047l-1.59906,31.18172c-0.02074,0.40897 0.06235,0.79885 0.17469,1.16906c-1.0307,0.05773 -2.05245,0.15453 -3.09735,0.15453c-1.04376,0 -2.06105,-0.09691 -3.09063,-0.15453c0.11038,-0.36348 0.19287,-0.74149 0.17469,-1.14219l-1.40422,-31.11453c-0.06192,-1.42072 -0.98309,-2.65326 -2.32469,-3.11078c-2.55248,-0.86688 -4.88367,-2.21557 -6.92703,-4.00437c-1.08016,-0.946 -2.63439,-1.12128 -3.89687,-0.43672l-28.28594,15.45313c-1.17693,-1.75873 -2.22632,-3.60255 -3.19813,-5.49594c0.48763,-0.07131 0.97187,-0.2112 1.41094,-0.50391l25.80672,-17.20672c1.14552,-0.76712 1.72596,-2.14511 1.4714,-3.50047c-0.24768,-1.31064 -0.36953,-2.59489 -0.36953,-3.82297c0,-1.22808 0.12185,-2.51233 0.36953,-3.82297c0.25456,-1.35536 -0.32245,-2.73335 -1.4714,-3.50047l-25.80672,-17.17985c-0.43798,-0.29135 -0.92281,-0.45218 -1.41094,-0.52406c1.02473,-1.99704 2.1271,-3.94477 3.37953,-5.79156c0.3059,0.49642 0.69266,0.9463 1.24297,1.24297l26.86828,14.49234c0.51256,0.27864 1.07537,0.41656 1.63265,0.41656c0.81528,0 1.62094,-0.28912 2.26422,-0.85328c2.03992,-1.7888 4.36783,-3.13405 6.92031,-4.00437c1.33816,-0.45752 2.26277,-1.69022 2.32469,-3.10406l1.41094,-31.25562c0.01594,-0.35191 -0.07082,-0.67708 -0.15453,-1.00109c1.02078,-0.05663 2.02904,-0.15453 3.06375,-0.15453zM76.20406,31.88047l-0.63156,14.18328c-7.08984,1.8404 -13.48636,5.51464 -18.71172,10.73656l-11.92578,-6.43656c-0.20503,-0.11027 -0.42434,-0.12918 -0.63828,-0.19485c8.07197,-9.38177 19.23692,-16.00105 31.90735,-18.28844zM95.79594,31.88719c12.50824,2.26073 23.53769,8.74644 31.58485,17.93906l-12.44313,6.76578c-5.12216,-5.03272 -11.50513,-8.66805 -18.41609,-10.49469zM137.47906,66.71047c2.26147,6.0136 3.56094,12.49492 3.56094,19.28953c0,6.80431 -1.30003,13.29564 -3.56765,19.3164l-11.81156,-7.955c1.05264,-3.6808 1.61922,-7.48796 1.61922,-11.3614c0,-3.85968 -0.5533,-7.64733 -1.59906,-11.31437l11.58313,-7.76016c0.08772,-0.05867 0.13447,-0.14994 0.215,-0.215zM34.41344,66.99937c0.08286,0.06711 0.13126,0.16141 0.22172,0.22172l11.60328,7.72656c-0.99416,3.58448 -1.51844,7.28899 -1.51844,11.05235c0,3.7668 0.53427,7.47114 1.53187,11.05906l-11.61672,7.74672c-0.08772,0.05867 -0.13445,0.14996 -0.215,0.215c-2.19697,-5.9387 -3.46015,-12.32722 -3.46015,-19.02078c0,-6.68609 1.26114,-13.06749 3.45344,-19.00063zM86,72.24c-7.58864,0 -13.76,6.17136 -13.76,13.76c0,7.58864 6.17136,13.76 13.76,13.76c7.58864,0 13.76,-6.17136 13.76,-13.76c0,-7.58864 -6.17136,-13.76 -13.76,-13.76zM86,79.12c3.79432,0 6.88,3.08568 6.88,6.88c0,3.79432 -3.08568,6.88 -6.88,6.88c-3.79432,0 -6.88,-3.08568 -6.88,-6.88c0,-3.79432 3.08568,-6.88 6.88,-6.88zM56.84063,115.19297c5.18064,5.16344 11.67659,8.88601 18.72515,10.72985l0.63828,14.12953c0.00106,0.02376 0.0119,0.04356 0.01344,0.06719c-12.58163,-2.26821 -23.67221,-8.81216 -31.73265,-18.08688zM114.8839,115.46172l12.3961,6.82625c-8.04296,9.13709 -19.03956,15.58362 -31.50422,17.83156c0.00113,-0.0169 0.01255,-0.03007 0.01344,-0.04703l0.72563,-14.16985c6.88688,-1.81976 13.25722,-5.43918 18.36906,-10.44094z"></path></g></g></svg>