<svg xmlns="http://www.w3.org/2000/svg" x="0px" y="0px"
width="60" height="60"
viewBox="0 0 172 172"
style=" fill:#000000;"><g fill="none" fill-rule="nonzero" stroke="none" stroke-width="1" stroke-linecap="butt" stroke-linejoin="miter" stroke-miterlimit="10" stroke-dasharray="" stroke-dashoffset="0" font-family="none" font-weight="none" font-size="none" text-anchor="none" style="mix-blend-mode: normal"><path d="M0,172v-172h172v172z" fill="none"></path><g fill="#000000"><path d="M86,32.25c-45.51908,0 -82.41667,24.06567 -82.41667,53.75c0,29.68433 36.89758,53.75 82.41667,53.75c45.51908,0 82.41667,-24.06567 82.41667,-53.75c0,-29.68433 -36.89758,-53.75 -82.41667,-53.75zM86,129c-37.59992,0 -68.08333,-19.25325 -68.08333,-43c0,-23.74675 30.48342,-43 68.08333,-43c37.59992,0 68.08333,19.25325 68.08333,43c0,23.74675 -30.48342,43 -68.08333,43z"></path><path d="M86,43c-11.87517,0 -21.5,19.25325 -21.5,43c0,23.74675 9.62483,43 21.5,43c11.87517,0 21.5,-19.25325 21.5,-43c0,-23.74675 -9.62483,-43 -21.5,-43zM86,114.66667c-5.93758,0 -10.75,-12.8355 -10.75,-28.66667c0,-15.83117 4.81242,-28.66667 10.75,-28.66667c5.93758,0 10.75,12.8355 10.75,28.66667c0,15.83117 -4.81242,28.66667 -10.75,28.66667z"></path><path d="M75.25358,86.13975c0,-0.04658 -0.00358,-0.09317 -0.00358,-0.13975c0,-15.83117 4.81242,-28.66667 10.75,-28.66667c5.93758,0 10.75,12.8355 10.75,28.66667c0,0.31892 -0.01433,0.63067 -0.01792,0.94958c0.01075,0 0.0215,0 0.03583,0.00358c0.07883,-20.79767 -2.2575,-36.7865 -10.76792,-36.7865c-8.95833,0 -10.78942,16.47258 -10.77508,35.97667c0.01075,0 0.01792,-0.00358 0.02867,-0.00358z"></path><path d="M86,35.83333c-31.66592,0 -57.33333,11.23017 -57.33333,25.08333c0,13.85317 25.66742,25.08333 57.33333,25.08333c31.66592,0 57.33333,-11.23017 57.33333,-25.08333c0,-13.85317 -25.66742,-25.08333 -57.33333,-25.08333zM86,75.25c-23.74675,0 -43,-8.11625 -43,-17.02083c0,-8.90458 19.25325,-15.22917 43,-15.22917c23.74675,0 43,6.32458 43,15.22917c0,8.90458 -19.25325,17.02083 -43,17.02083z"></path><path d="M17.91667,86c0,-8.61075 4.04917,-16.61233 10.95067,-23.33825c-0.08958,-0.5805 -0.20067,-1.15742 -0.20067,-1.74508c0,-2.20375 0.71667,-4.33225 1.93858,-6.37117c-12.66708,7.27775 -19.85525,17.86292 -19.85525,31.4545c0,25.74267 33.88042,38.5065 60.68733,41.9895c-30.59808,-4.214 -53.52067,-21.40325 -53.52067,-41.9895zM141.39475,54.5455c1.22192,2.03892 1.93858,4.16742 1.93858,6.37117c0,0.58767 -0.11108,1.16458 -0.20067,1.74508c6.9015,6.72592 10.95067,14.7275 10.95067,23.33825c0,20.58625 -22.92258,37.7755 -53.52067,41.9895c26.80692,-3.483 60.68733,-16.24683 60.68733,-41.9895c0,-13.59158 -7.18817,-24.17675 -19.85525,-31.4545z"></path></g></g></svg>