<svg xmlns="http://www.w3.org/2000/svg" x="0px" y="0px"
width="100" height="100"
viewBox="0 0 172 172"
style=" fill:#000000;"><g fill="none" fill-rule="nonzero" stroke="none" stroke-width="1" stroke-linecap="butt" stroke-linejoin="miter" stroke-miterlimit="10" stroke-dasharray="" stroke-dashoffset="0" font-family="none" font-weight="none" font-size="none" text-anchor="none" style="mix-blend-mode: normal"><path d="M0,172v-172h172v172z" fill="none"></path><g fill="#0000ff"><path d="M129.93958,15.45313c-3.49375,0 -6.85103,0.67188 -9.94165,2.01563h-0.13647l-66.37915,29.02447c-2.01562,0.94062 -2.95625,3.225 -2.01562,5.375c0.67188,1.47813 2.14843,2.4198 3.76093,2.4198c0.5375,0 1.07657,-0.13543 1.61407,-0.40418l48.9104,-21.36615c-1.075,2.82187 -1.61145,5.91355 -1.61145,9.13855c0,14.5125 11.69167,26.20313 25.93542,26.20313c14.24375,0 25.79895,-11.69063 25.79895,-26.20312c0,-14.5125 -11.69167,-26.20312 -25.93542,-26.20312zM129.93958,23.51563c9.80938,0 17.87292,8.19688 17.87292,18.14063c0,9.94375 -8.06355,18.14063 -17.87292,18.14063c-9.80938,0 -17.8703,-8.19687 -17.8703,-18.14062c0,-9.94375 8.06093,-18.14062 17.8703,-18.14062zM129.80572,36.1474c-3.04233,0.00029 -5.50856,2.46652 -5.50885,5.50885c0.00029,3.04233 2.46652,5.50856 5.50885,5.50885c3.04233,-0.00029 5.50856,-2.46652 5.50885,-5.50885c-0.00029,-3.04233 -2.46652,-5.50856 -5.50885,-5.50885zM36.68542,56.4375c-11.2875,0 -20.56042,9.2724 -20.56042,20.69428c0,5.10625 1.8802,9.80937 4.97083,13.4375c0.13438,0.13437 0.13595,0.2677 0.27032,0.2677l25.79895,27.41303c0.80625,0.80625 1.88282,1.2099 2.95782,1.2099c0.94063,0 2.0151,-0.40418 2.82135,-1.07605c1.6125,-1.47812 1.74635,-4.0302 0.13385,-5.6427l-14.24322,-15.05157c10.2125,-1.075 18.27447,-9.94218 18.27447,-20.5578c0,-11.42187 -9.13645,-20.69428 -20.42395,-20.69428zM36.68542,64.5c6.85313,0 12.36145,5.64428 12.36145,12.63178c0,6.9875 -5.50833,12.63177 -12.36145,12.63177c-3.35937,0 -6.45,-1.34532 -8.73437,-3.6297l-0.27032,-0.2677c-2.15,-2.28437 -3.49322,-5.375 -3.49322,-8.73437c0,-6.9875 5.6448,-12.63178 12.49792,-12.63178zM146.20367,68.51025c-1.85552,0.13227 -3.53101,1.49912 -3.76617,3.38037l-3.35937,22.17188c-6.9875,-13.84063 -21.3651,-23.24792 -37.75885,-23.24792c-23.38125,0.13438 -42.32812,19.21615 -42.32812,42.86615c0,23.65 19.08072,42.86615 42.46197,42.86615c20.425,0 37.62552,-14.7802 41.5224,-34.53333v-0.27032c0.13438,-0.94062 0.40155,-2.01457 0.40155,-2.9552l6.98907,-45.6875c0.40312,-2.15 -1.20937,-4.30053 -3.35937,-4.56928c-0.26875,-0.03359 -0.53802,-0.03989 -0.80311,-0.021zM36.68542,73.10053c-2.2264,0 -4.03125,1.80485 -4.03125,4.03125c0,2.2264 1.80485,4.03125 4.03125,4.03125c2.2264,0 4.03125,-1.80485 4.03125,-4.03125c0,-2.2264 -1.80485,-4.03125 -4.03125,-4.03125zM101.31928,78.87708c18.94687,0 34.39947,15.7224 34.39947,34.80365c0,1.34375 -0.13333,2.68803 -0.2677,3.8974l-0.40417,2.9552c-3.09062,15.85625 -17.0651,27.95105 -33.7276,27.95105c-18.94688,0 -34.39948,-15.58803 -34.39948,-34.80365c0,-19.21562 15.4526,-34.80365 34.39948,-34.80365zM101.58697,87.61145c-2.28437,0 -4.03125,1.74687 -4.03125,4.03125v7.66095c-1.20938,0.26875 -2.28437,0.80625 -3.35937,1.34375l-5.24115,-5.375c-1.6125,-1.6125 -4.16458,-1.6125 -5.6427,0c-1.6125,1.6125 -1.6125,4.16457 0,5.6427l5.375,5.375c-0.5375,1.075 -1.075,2.15 -1.34375,3.35938h-7.52447c-2.28437,0 -4.03125,1.74688 -4.03125,4.03125c0,2.28438 1.74688,4.03125 4.03125,4.03125h7.52447c0.26875,1.20938 0.80625,2.28438 1.34375,3.35938l-5.375,5.375c-1.6125,1.6125 -1.6125,4.1672 0,5.64532c0.80625,0.80625 1.74635,1.20728 2.82135,1.20728c1.075,0 2.0151,-0.40103 2.82135,-1.20728l5.24115,-5.375c1.075,0.5375 2.15,1.075 3.35938,1.34375v7.65833c0,2.28438 1.74688,4.03125 4.03125,4.03125c2.28438,0 4.03125,-1.74687 4.03125,-4.03125v-7.65833c1.20938,-0.26875 2.28438,-0.80625 3.35938,-1.34375l5.24115,5.375c0.80625,0.80625 1.88072,1.20728 2.82135,1.20728c1.075,0 2.0151,-0.40103 2.82135,-1.20728c1.6125,-1.6125 1.6125,-4.1672 0,-5.64532l-5.375,-5.375c0.5375,-1.075 1.075,-2.15 1.34375,-3.35937h7.5271c2.28438,0 4.03125,-1.74687 4.03125,-4.03125c0,-2.28437 -1.74687,-4.03125 -4.03125,-4.03125h-7.5271c-0.26875,-1.20938 -0.80625,-2.28437 -1.34375,-3.35937l5.375,-5.375c1.6125,-1.6125 1.6125,-4.16457 0,-5.6427c-1.6125,-1.6125 -4.16458,-1.6125 -5.6427,0l-5.24115,5.375c-1.075,-0.5375 -2.15,-1.075 -3.35937,-1.34375v-7.66095c0,-2.28438 -1.74687,-4.03125 -4.03125,-4.03125zM101.31928,106.82813c3.7625,0 6.98645,3.22395 6.98645,6.98645c0,3.7625 -3.08957,6.98907 -6.98645,6.98907c-3.7625,0 -6.98907,-3.22657 -6.98907,-6.98907c0,-3.7625 3.0922,-6.98645 6.98907,-6.98645z"></path></g></g></svg>